<?xml version="1.0" encoding="utf-8" standalone="no"?>
<!DOCTYPE svg PUBLIC "-//W3C//DTD SVG 1.1//EN"
  "http://www.w3.org/Graphics/SVG/1.1/DTD/svg11.dtd">
<svg xmlns:xlink="http://www.w3.org/1999/xlink" width="683.415562pt" height="378.034516pt" viewBox="0 0 683.415562 378.034516" xmlns="http://www.w3.org/2000/svg" version="1.1">
 <metadata>
  <rdf:RDF xmlns:dc="http://purl.org/dc/elements/1.1/" xmlns:cc="http://creativecommons.org/ns#" xmlns:rdf="http://www.w3.org/1999/02/22-rdf-syntax-ns#">
   <cc:Work>
    <dc:type rdf:resource="http://purl.org/dc/dcmitype/StillImage"/>
    <dc:date>2026-05-10T13:19:56.308001</dc:date>
    <dc:format>image/svg+xml</dc:format>
    <dc:creator>
     <cc:Agent>
      <dc:title>Matplotlib v3.9.2, https://matplotlib.org/</dc:title>
     </cc:Agent>
    </dc:creator>
   </cc:Work>
  </rdf:RDF>
 </metadata>
 <defs>
  <style type="text/css">*{stroke-linejoin: round; stroke-linecap: butt}</style>
 </defs>
 <g id="figure_1">
  <g id="patch_1">
   <path d="M 0 378.034516 
L 683.415562 378.034516 
L 683.415562 0 
L 0 0 
z
" style="fill: #ffffff"/>
  </g>
  <g id="axes_1">
   <g id="patch_2">
    <path d="M 55.472688 334.897578 
L 666.862687 334.897578 
L 666.862687 35.977578 
L 55.472688 35.977578 
z
" style="fill: #ffffff"/>
   </g>
   <g id="PolyCollection_1">
    <defs>
     <path id="mbd06b9a4d4" d="M 55.472688 -326.969404 
L 55.472688 -313.835366 
L 61.526054 -312.824389 
L 67.57942 -309.260511 
L 73.632787 -304.368728 
L 79.686153 -299.608655 
L 85.739519 -294.209029 
L 91.792886 -291.818404 
L 97.846252 -287.96575 
L 103.899618 -285.873386 
L 109.952985 -282.432235 
L 116.006351 -278.45259 
L 122.059717 -273.300292 
L 128.113084 -267.426193 
L 134.16645 -262.567126 
L 140.219816 -257.909608 
L 146.273183 -252.797703 
L 152.326549 -249.452111 
L 158.379915 -246.346626 
L 164.433282 -245.18675 
L 170.486648 -239.126877 
L 176.540014 -234.918418 
L 182.593381 -229.856598 
L 188.646747 -228.108638 
L 194.700113 -225.139413 
L 200.75348 -221.43112 
L 206.806846 -217.494545 
L 212.860212 -212.221719 
L 218.913579 -208.121493 
L 224.966945 -206.625726 
L 231.020311 -202.499982 
L 237.073678 -199.727818 
L 243.127044 -197.563329 
L 249.18041 -195.961825 
L 255.233777 -193.06791 
L 261.287143 -189.685881 
L 267.340509 -187.194174 
L 273.393876 -187.290634 
L 279.447242 -185.57689 
L 285.500608 -183.523948 
L 291.553975 -181.135811 
L 297.607341 -176.972904 
L 303.660707 -173.3878 
L 309.714074 -170.549473 
L 315.76744 -167.357101 
L 321.820806 -161.811233 
L 327.874173 -156.020785 
L 333.927539 -153.572465 
L 339.980905 -149.012443 
L 346.034272 -144.238736 
L 352.087638 -138.189749 
L 358.141004 -134.254066 
L 364.194371 -131.253729 
L 370.247737 -126.091712 
L 376.301103 -121.519846 
L 382.35447 -114.796726 
L 388.407836 -107.627153 
L 394.461202 -101.926505 
L 400.514569 -99.259419 
L 406.567935 -92.974893 
L 412.621301 -88.844455 
L 418.674668 -82.171881 
L 424.728034 -76.465181 
L 430.7814 -72.531284 
L 436.834767 -67.979912 
L 442.888133 -65.300956 
L 448.941499 -63.025831 
L 454.994866 -59.856554 
L 461.048232 -58.915409 
L 467.101598 -56.740563 
L 473.154965 -55.165642 
L 479.208331 -54.498811 
L 485.261697 -53.745183 
L 491.315064 -53.037727 
L 497.36843 -50.944536 
L 503.421796 -50.977645 
L 509.475163 -49.618984 
L 515.528529 -49.471661 
L 521.581895 -49.35405 
L 527.635262 -48.95429 
L 533.688628 -49.074078 
L 539.741994 -49.275829 
L 545.795361 -49.519984 
L 551.848727 -49.755196 
L 557.902093 -49.632279 
L 563.95546 -49.823071 
L 570.008826 -49.520296 
L 576.062192 -50.18705 
L 582.115559 -50.798826 
L 588.168925 -50.566575 
L 594.222291 -51.220921 
L 600.275658 -51.422672 
L 606.329024 -51.892398 
L 612.38239 -52.243971 
L 618.435757 -52.863778 
L 624.489123 -52.936087 
L 630.542489 -53.110323 
L 636.595856 -53.018946 
L 642.649222 -53.184295 
L 648.702588 -53.234184 
L 654.755955 -53.352708 
L 660.809321 -53.352708 
L 666.862687 -53.402946 
L 666.862687 -54.915945 
L 666.862687 -54.915945 
L 660.809321 -54.869658 
L 654.755955 -54.869658 
L 648.702588 -54.758983 
L 642.649222 -54.712856 
L 636.595856 -54.549259 
L 630.542489 -54.646171 
L 624.489123 -54.475415 
L 618.435757 -54.399129 
L 612.38239 -53.69117 
L 606.329024 -53.207564 
L 600.275658 -52.74692 
L 594.222291 -52.55177 
L 588.168925 -51.692455 
L 582.115559 -52.035947 
L 576.062192 -51.482412 
L 570.008826 -50.567958 
L 563.95546 -50.956521 
L 557.902093 -50.73386 
L 551.848727 -51.265706 
L 545.795361 -50.872791 
L 539.741994 -50.715489 
L 533.688628 -50.716956 
L 527.635262 -50.762141 
L 521.581895 -51.479337 
L 515.528529 -51.48847 
L 509.475163 -52.046979 
L 503.421796 -54.104105 
L 497.36843 -54.337993 
L 491.315064 -58.096476 
L 485.261697 -58.948785 
L 479.208331 -59.776755 
L 473.154965 -60.838388 
L 467.101598 -62.698545 
L 461.048232 -65.919589 
L 454.994866 -67.208378 
L 448.941499 -70.969766 
L 442.888133 -73.472592 
L 436.834767 -76.532558 
L 430.7814 -81.858877 
L 424.728034 -86.126747 
L 418.674668 -92.485443 
L 412.621301 -100.013125 
L 406.567935 -104.664588 
L 400.514569 -111.555613 
L 394.461202 -114.27881 
L 388.407836 -120.040305 
L 382.35447 -127.554831 
L 376.301103 -134.387006 
L 370.247737 -139.199017 
L 364.194371 -144.826475 
L 358.141004 -147.971761 
L 352.087638 -152.026812 
L 346.034272 -158.263827 
L 339.980905 -163.126025 
L 333.927539 -168.060159 
L 327.874173 -170.594123 
L 321.820806 -176.428036 
L 315.76744 -182.001756 
L 309.714074 -184.908045 
L 303.660707 -187.511322 
L 297.607341 -191.199408 
L 291.553975 -195.211815 
L 285.500608 -197.595309 
L 279.447242 -199.72263 
L 273.393876 -201.379726 
L 267.340509 -201.089063 
L 261.287143 -203.34958 
L 255.233777 -206.71217 
L 249.18041 -209.220999 
L 243.127044 -210.928836 
L 237.073678 -213.150881 
L 231.020311 -215.899264 
L 224.966945 -219.916939 
L 218.913579 -221.554777 
L 212.860212 -225.960596 
L 206.806846 -231.211636 
L 200.75348 -235.423957 
L 194.700113 -239.020792 
L 188.646747 -242.288587 
L 182.593381 -244.294426 
L 176.540014 -249.371116 
L 170.486648 -253.584213 
L 164.433282 -259.398174 
L 158.379915 -260.732853 
L 152.326549 -263.92087 
L 146.273183 -267.220191 
L 140.219816 -272.252818 
L 134.16645 -276.905314 
L 128.113084 -281.756774 
L 122.059717 -287.641792 
L 116.006351 -292.519845 
L 109.952985 -296.67694 
L 103.899618 -300.391039 
L 97.846252 -302.709138 
L 91.792886 -306.537537 
L 85.739519 -308.983804 
L 79.686153 -314.51005 
L 73.632787 -319.614166 
L 67.57942 -324.396335 
L 61.526054 -327.859685 
L 55.472688 -326.969404 
z
"/>
    </defs>
    <g clip-path="url(#pc354f50a16)">
     <use xlink:href="#mbd06b9a4d4" x="0" y="378.034516" style="fill: #9e5c5c; fill-opacity: 0.11"/>
    </g>
   </g>
   <g id="matplotlib.axis_1">
    <g id="xtick_1">
     <g id="line2d_1">
      <path d="M 55.472688 334.897578 
L 55.472688 35.977578 
" clip-path="url(#pc354f50a16)" style="fill: none; stroke: #f3f4f6; stroke-width: 0.8; stroke-linecap: square"/>
     </g>
     <g id="line2d_2">
      <defs>
       <path id="m1b08e9a465" d="M 0 0 
L 0 3.5 
" style="stroke: #2c2420; stroke-width: 0.8"/>
      </defs>
      <g>
       <use xlink:href="#m1b08e9a465" x="55.472688" y="334.897578" style="fill: #2c2420; stroke: #2c2420; stroke-width: 0.8"/>
      </g>
     </g>
     <g id="text_1">
      <text style="fill: #2c2420; font: 9.8px 'DejaVu Sans'; text-anchor: middle" x="55.472688" y="349.344047" transform="rotate(-0 55.472688 349.344047)">0</text>
     </g>
    </g>
    <g id="xtick_2">
     <g id="line2d_3">
      <path d="M 177.750688 334.897578 
L 177.750688 35.977578 
" clip-path="url(#pc354f50a16)" style="fill: none; stroke: #f3f4f6; stroke-width: 0.8; stroke-linecap: square"/>
     </g>
     <g id="line2d_4">
      <g>
       <use xlink:href="#m1b08e9a465" x="177.750688" y="334.897578" style="fill: #2c2420; stroke: #2c2420; stroke-width: 0.8"/>
      </g>
     </g>
     <g id="text_2">
      <text style="fill: #2c2420; font: 9.8px 'DejaVu Sans'; text-anchor: middle" x="177.750688" y="349.344047" transform="rotate(-0 177.750688 349.344047)">20</text>
     </g>
    </g>
    <g id="xtick_3">
     <g id="line2d_5">
      <path d="M 300.028688 334.897578 
L 300.028688 35.977578 
" clip-path="url(#pc354f50a16)" style="fill: none; stroke: #f3f4f6; stroke-width: 0.8; stroke-linecap: square"/>
     </g>
     <g id="line2d_6">
      <g>
       <use xlink:href="#m1b08e9a465" x="300.028688" y="334.897578" style="fill: #2c2420; stroke: #2c2420; stroke-width: 0.8"/>
      </g>
     </g>
     <g id="text_3">
      <text style="fill: #2c2420; font: 9.8px 'DejaVu Sans'; text-anchor: middle" x="300.028688" y="349.344047" transform="rotate(-0 300.028688 349.344047)">40</text>
     </g>
    </g>
    <g id="xtick_4">
     <g id="line2d_7">
      <path d="M 422.306688 334.897578 
L 422.306688 35.977578 
" clip-path="url(#pc354f50a16)" style="fill: none; stroke: #f3f4f6; stroke-width: 0.8; stroke-linecap: square"/>
     </g>
     <g id="line2d_8">
      <g>
       <use xlink:href="#m1b08e9a465" x="422.306688" y="334.897578" style="fill: #2c2420; stroke: #2c2420; stroke-width: 0.8"/>
      </g>
     </g>
     <g id="text_4">
      <text style="fill: #2c2420; font: 9.8px 'DejaVu Sans'; text-anchor: middle" x="422.306688" y="349.344047" transform="rotate(-0 422.306688 349.344047)">60</text>
     </g>
    </g>
    <g id="xtick_5">
     <g id="line2d_9">
      <path d="M 544.584687 334.897578 
L 544.584687 35.977578 
" clip-path="url(#pc354f50a16)" style="fill: none; stroke: #f3f4f6; stroke-width: 0.8; stroke-linecap: square"/>
     </g>
     <g id="line2d_10">
      <g>
       <use xlink:href="#m1b08e9a465" x="544.584687" y="334.897578" style="fill: #2c2420; stroke: #2c2420; stroke-width: 0.8"/>
      </g>
     </g>
     <g id="text_5">
      <text style="fill: #2c2420; font: 9.8px 'DejaVu Sans'; text-anchor: middle" x="544.584687" y="349.344047" transform="rotate(-0 544.584687 349.344047)">80</text>
     </g>
    </g>
    <g id="xtick_6">
     <g id="line2d_11">
      <path d="M 666.862687 334.897578 
L 666.862687 35.977578 
" clip-path="url(#pc354f50a16)" style="fill: none; stroke: #f3f4f6; stroke-width: 0.8; stroke-linecap: square"/>
     </g>
     <g id="line2d_12">
      <g>
       <use xlink:href="#m1b08e9a465" x="666.862687" y="334.897578" style="fill: #2c2420; stroke: #2c2420; stroke-width: 0.8"/>
      </g>
     </g>
     <g id="text_6">
      <text style="fill: #2c2420; font: 9.8px 'DejaVu Sans'; text-anchor: middle" x="666.862687" y="349.344047" transform="rotate(-0 666.862687 349.344047)">100</text>
     </g>
    </g>
    <g id="text_7">
     <text style="fill: #2c2420; font: 10.8px 'DejaVu Sans'; text-anchor: middle" x="361.167687" y="368.588453" transform="rotate(-0 361.167687 368.588453)">Tokens Masked (%)</text>
    </g>
   </g>
   <g id="matplotlib.axis_2">
    <g id="ytick_1">
     <g id="line2d_13">
      <path d="M 55.472688 334.897578 
L 666.862687 334.897578 
" clip-path="url(#pc354f50a16)" style="fill: none; stroke: #e5e7eb; stroke-linecap: square"/>
     </g>
     <g id="line2d_14">
      <defs>
       <path id="mc282b8c3ed" d="M 0 0 
L -3.5 0 
" style="stroke: #2c2420; stroke-width: 0.8"/>
      </defs>
      <g>
       <use xlink:href="#mc282b8c3ed" x="55.472688" y="334.897578" style="fill: #2c2420; stroke: #2c2420; stroke-width: 0.8"/>
      </g>
     </g>
     <g id="text_8">
      <text style="fill: #2c2420; font: 9.8px 'DejaVu Sans'; text-anchor: end" x="48.472688" y="338.620812" transform="rotate(-0 48.472688 338.620812)">0.00</text>
     </g>
    </g>
    <g id="ytick_2">
     <g id="line2d_15">
      <path d="M 55.472688 274.651701 
L 666.862687 274.651701 
" clip-path="url(#pc354f50a16)" style="fill: none; stroke: #e5e7eb; stroke-linecap: square"/>
     </g>
     <g id="line2d_16">
      <g>
       <use xlink:href="#mc282b8c3ed" x="55.472688" y="274.651701" style="fill: #2c2420; stroke: #2c2420; stroke-width: 0.8"/>
      </g>
     </g>
     <g id="text_9">
      <text style="fill: #2c2420; font: 9.8px 'DejaVu Sans'; text-anchor: end" x="48.472688" y="278.374935" transform="rotate(-0 48.472688 278.374935)">0.05</text>
     </g>
    </g>
    <g id="ytick_3">
     <g id="line2d_17">
      <path d="M 55.472688 214.405824 
L 666.862687 214.405824 
" clip-path="url(#pc354f50a16)" style="fill: none; stroke: #e5e7eb; stroke-linecap: square"/>
     </g>
     <g id="line2d_18">
      <g>
       <use xlink:href="#mc282b8c3ed" x="55.472688" y="214.405824" style="fill: #2c2420; stroke: #2c2420; stroke-width: 0.8"/>
      </g>
     </g>
     <g id="text_10">
      <text style="fill: #2c2420; font: 9.8px 'DejaVu Sans'; text-anchor: end" x="48.472688" y="218.129058" transform="rotate(-0 48.472688 218.129058)">0.10</text>
     </g>
    </g>
    <g id="ytick_4">
     <g id="line2d_19">
      <path d="M 55.472688 154.159947 
L 666.862687 154.159947 
" clip-path="url(#pc354f50a16)" style="fill: none; stroke: #e5e7eb; stroke-linecap: square"/>
     </g>
     <g id="line2d_20">
      <g>
       <use xlink:href="#mc282b8c3ed" x="55.472688" y="154.159947" style="fill: #2c2420; stroke: #2c2420; stroke-width: 0.8"/>
      </g>
     </g>
     <g id="text_11">
      <text style="fill: #2c2420; font: 9.8px 'DejaVu Sans'; text-anchor: end" x="48.472688" y="157.883181" transform="rotate(-0 48.472688 157.883181)">0.15</text>
     </g>
    </g>
    <g id="ytick_5">
     <g id="line2d_21">
      <path d="M 55.472688 93.914069 
L 666.862687 93.914069 
" clip-path="url(#pc354f50a16)" style="fill: none; stroke: #e5e7eb; stroke-linecap: square"/>
     </g>
     <g id="line2d_22">
      <g>
       <use xlink:href="#mc282b8c3ed" x="55.472688" y="93.914069" style="fill: #2c2420; stroke: #2c2420; stroke-width: 0.8"/>
      </g>
     </g>
     <g id="text_12">
      <text style="fill: #2c2420; font: 9.8px 'DejaVu Sans'; text-anchor: end" x="48.472688" y="97.637304" transform="rotate(-0 48.472688 97.637304)">0.20</text>
     </g>
    </g>
    <g id="text_13">
     <text style="fill: #2c2420; font: 10.8px 'DejaVu Sans'; text-anchor: middle" x="15.406313" y="185.437578" transform="rotate(-90 15.406313 185.437578)">Confidence predicted</text>
    </g>
   </g>
   <g id="line2d_23">
    <path d="M 55.472688 57.632131 
L 61.526054 57.692478 
L 67.57942 61.206093 
L 73.632787 66.043068 
L 79.686153 70.975163 
L 85.739519 76.438099 
L 91.792886 78.856545 
L 97.846252 82.697072 
L 103.899618 84.902303 
L 109.952985 88.479928 
L 116.006351 92.548298 
L 122.059717 97.563473 
L 128.113084 103.443032 
L 134.16645 108.298295 
L 140.219816 112.953302 
L 146.273183 118.025568 
L 152.326549 121.348025 
L 158.379915 124.494776 
L 164.433282 125.742054 
L 170.486648 131.67897 
L 176.540014 135.889748 
L 182.593381 140.959004 
L 188.646747 142.835903 
L 194.700113 145.954413 
L 200.75348 149.606977 
L 206.806846 153.681425 
L 212.860212 158.943358 
L 218.913579 163.19638 
L 224.966945 164.763183 
L 231.020311 168.834893 
L 237.073678 171.595166 
L 243.127044 173.788433 
L 249.18041 175.443104 
L 255.233777 178.144476 
L 261.287143 181.516785 
L 267.340509 183.892898 
L 273.393876 183.699335 
L 279.447242 185.384756 
L 285.500608 187.474887 
L 291.553975 189.860703 
L 297.607341 193.94836 
L 303.660707 197.584955 
L 309.714074 200.305757 
L 315.76744 203.355087 
L 321.820806 208.914881 
L 327.874173 214.727062 
L 333.927539 217.218204 
L 339.980905 221.965282 
L 346.034272 226.783234 
L 352.087638 232.926235 
L 358.141004 236.921602 
L 364.194371 239.994414 
L 370.247737 245.389151 
L 376.301103 250.08109 
L 382.35447 256.858737 
L 388.407836 264.200787 
L 394.461202 269.931858 
L 400.514569 272.626999 
L 406.567935 279.214775 
L 412.621301 283.605726 
L 418.674668 290.705854 
L 424.728034 296.738552 
L 430.7814 300.839436 
L 436.834767 305.778281 
L 442.888133 308.647741 
L 448.941499 311.036717 
L 454.994866 314.502049 
L 461.048232 315.617017 
L 467.101598 318.314961 
L 473.154965 320.032501 
L 479.208331 320.896733 
L 485.261697 321.687531 
L 491.315064 322.467414 
L 497.36843 325.393251 
L 503.421796 325.493641 
L 509.475163 327.201534 
L 515.528529 327.55445 
L 521.581895 327.617822 
L 527.635262 328.1763 
L 533.688628 328.138998 
L 539.741994 328.038857 
L 545.795361 327.838128 
L 551.848727 327.524064 
L 557.902093 327.851446 
L 563.95546 327.64472 
L 570.008826 327.990389 
L 576.062192 327.199785 
L 582.115559 326.617129 
L 588.168925 326.905 
L 594.222291 326.14817 
L 600.275658 325.94972 
L 606.329024 325.484535 
L 612.38239 325.066945 
L 618.435757 324.403062 
L 624.489123 324.328764 
L 630.542489 324.156269 
L 636.595856 324.250413 
L 642.649222 324.08594 
L 648.702588 324.037932 
L 654.755955 323.923333 
L 660.809321 323.923333 
L 666.862687 323.87507 
" clip-path="url(#pc354f50a16)" style="fill: none; stroke-dasharray: 3.675,4.9; stroke-dashoffset: 0; stroke: #9e5c5c; stroke-width: 2.45"/>
   </g>
   <g id="patch_3">
    <path d="M 55.472688 334.897578 
L 55.472688 35.977578 
" style="fill: none; stroke: #d9d0c8; stroke-width: 0.8; stroke-linejoin: miter; stroke-linecap: square"/>
   </g>
   <g id="patch_4">
    <path d="M 55.472688 334.897578 
L 666.862687 334.897578 
" style="fill: none; stroke: #d9d0c8; stroke-width: 0.8; stroke-linejoin: miter; stroke-linecap: square"/>
   </g>
   <g id="PolyCollection_2">
    <defs>
     <path id="m46f19775c1" d="M 55.472688 -326.969404 
L 55.472688 -313.835366 
L 61.526054 -304.750796 
L 67.57942 -295.632173 
L 73.632787 -285.215825 
L 79.686153 -274.997168 
L 85.739519 -261.974663 
L 91.792886 -251.229855 
L 97.846252 -241.661956 
L 103.899618 -237.478188 
L 109.952985 -227.74528 
L 116.006351 -218.370826 
L 122.059717 -212.694184 
L 128.113084 -204.179079 
L 134.16645 -195.329434 
L 140.219816 -189.021082 
L 146.273183 -180.957542 
L 152.326549 -174.883495 
L 158.379915 -169.594147 
L 164.433282 -164.543272 
L 170.486648 -157.247364 
L 176.540014 -149.372059 
L 182.593381 -144.776579 
L 188.646747 -141.037046 
L 194.700113 -135.413032 
L 200.75348 -130.320981 
L 206.806846 -125.999966 
L 212.860212 -124.203558 
L 218.913579 -121.143015 
L 224.966945 -118.270378 
L 231.020311 -114.460617 
L 237.073678 -108.075202 
L 243.127044 -101.799967 
L 249.18041 -98.418153 
L 255.233777 -95.261301 
L 261.287143 -91.675344 
L 267.340509 -89.06196 
L 273.393876 -86.604775 
L 279.447242 -83.268839 
L 285.500608 -81.323152 
L 291.553975 -78.340307 
L 297.607341 -77.104185 
L 303.660707 -73.570311 
L 309.714074 -71.857701 
L 315.76744 -69.07278 
L 321.820806 -68.292898 
L 327.874173 -66.455232 
L 333.927539 -64.638397 
L 339.980905 -63.445831 
L 346.034272 -62.486564 
L 352.087638 -61.519288 
L 358.141004 -60.560351 
L 364.194371 -59.073223 
L 370.247737 -57.654645 
L 376.301103 -56.35126 
L 382.35447 -54.915541 
L 388.407836 -53.342254 
L 394.461202 -52.665756 
L 400.514569 -51.571489 
L 406.567935 -50.107494 
L 412.621301 -48.830629 
L 418.674668 -48.325613 
L 424.728034 -47.708532 
L 430.7814 -47.218406 
L 436.834767 -47.752591 
L 442.888133 -47.537118 
L 448.941499 -46.210356 
L 454.994866 -46.035326 
L 461.048232 -46.418751 
L 467.101598 -46.080628 
L 473.154965 -45.627865 
L 479.208331 -45.637454 
L 485.261697 -45.884612 
L 491.315064 -46.215617 
L 497.36843 -50.39432 
L 503.421796 -50.753327 
L 509.475163 -48.235049 
L 515.528529 -48.885221 
L 521.581895 -49.152052 
L 527.635262 -48.435419 
L 533.688628 -48.795579 
L 539.741994 -49.062583 
L 545.795361 -49.452573 
L 551.848727 -49.524715 
L 557.902093 -50.083827 
L 563.95546 -49.736888 
L 570.008826 -49.915798 
L 576.062192 -50.297478 
L 582.115559 -51.195535 
L 588.168925 -51.248113 
L 594.222291 -52.226323 
L 600.275658 -51.434979 
L 606.329024 -51.714956 
L 612.38239 -52.106967 
L 618.435757 -52.75107 
L 624.489123 -52.846549 
L 630.542489 -52.987428 
L 636.595856 -53.017418 
L 642.649222 -53.188698 
L 648.702588 -53.234337 
L 654.755955 -53.353605 
L 660.809321 -53.352712 
L 666.862687 -53.402946 
L 666.862687 -54.915945 
L 666.862687 -54.915945 
L 660.809321 -54.869661 
L 654.755955 -54.870434 
L 648.702588 -54.759116 
L 642.649222 -54.716692 
L 636.595856 -54.547929 
L 630.542489 -54.521193 
L 624.489123 -54.390122 
L 618.435757 -54.295382 
L 612.38239 -53.562399 
L 606.329024 -53.024709 
L 600.275658 -52.759494 
L 594.222291 -64.19627 
L 588.168925 -62.941781 
L 582.115559 -63.002196 
L 576.062192 -51.474442 
L 570.008826 -61.852136 
L 563.95546 -61.5135 
L 557.902093 -60.20781 
L 551.848727 -61.528219 
L 545.795361 -61.379103 
L 539.741994 -61.063163 
L 533.688628 -60.800731 
L 527.635262 -60.428944 
L 521.581895 -61.184319 
L 515.528529 -60.508981 
L 509.475163 -60.083939 
L 503.421796 -67.380171 
L 497.36843 -66.9278 
L 491.315064 -47.316962 
L 485.261697 -46.934147 
L 479.208331 -46.708147 
L 473.154965 -46.625036 
L 467.101598 -47.271698 
L 461.048232 -47.700556 
L 454.994866 -47.266303 
L 448.941499 -47.499457 
L 442.888133 -49.556149 
L 436.834767 -51.138722 
L 430.7814 -48.759087 
L 424.728034 -49.422402 
L 418.674668 -50.394607 
L 412.621301 -50.96443 
L 406.567935 -52.840488 
L 400.514569 -54.589104 
L 394.461202 -56.136247 
L 388.407836 -56.832202 
L 382.35447 -58.889423 
L 376.301103 -60.841037 
L 370.247737 -62.38253 
L 364.194371 -64.004583 
L 358.141004 -65.751457 
L 352.087638 -66.901256 
L 346.034272 -67.875472 
L 339.980905 -68.985234 
L 333.927539 -70.541191 
L 327.874173 -72.756908 
L 321.820806 -74.796015 
L 315.76744 -75.574268 
L 309.714074 -78.750118 
L 303.660707 -80.690248 
L 297.607341 -84.534591 
L 291.553975 -85.780031 
L 285.500608 -89.187251 
L 279.447242 -91.257428 
L 273.393876 -94.980802 
L 267.340509 -97.738372 
L 261.287143 -100.602354 
L 255.233777 -104.335256 
L 249.18041 -107.724516 
L 243.127044 -111.467089 
L 237.073678 -118.525499 
L 231.020311 -125.427823 
L 224.966945 -129.580967 
L 218.913579 -132.830703 
L 212.860212 -135.887589 
L 206.806846 -137.632503 
L 200.75348 -142.176777 
L 194.700113 -147.735674 
L 188.646747 -153.912299 
L 182.593381 -157.705327 
L 176.540014 -162.31226 
L 170.486648 -170.482212 
L 164.433282 -178.434567 
L 158.379915 -183.461657 
L 152.326549 -188.970986 
L 146.273183 -195.183294 
L 140.219816 -203.42139 
L 134.16645 -209.953144 
L 128.113084 -218.967889 
L 122.059717 -227.307196 
L 116.006351 -233.05295 
L 109.952985 -242.525463 
L 103.899618 -252.436701 
L 97.846252 -256.639694 
L 91.792886 -266.330942 
L 85.739519 -276.58297 
L 79.686153 -289.12273 
L 73.632787 -299.112102 
L 67.57942 -308.412641 
L 61.526054 -317.458559 
L 55.472688 -326.969404 
z
"/>
    </defs>
    <g clip-path="url(#pc354f50a16)">
     <use xlink:href="#m46f19775c1" x="0" y="378.034516" style="fill: #a8a09a; fill-opacity: 0.11"/>
    </g>
   </g>
   <g id="text_14">
    <text style="fill: #2c2420; font: 600 15.5px 'DejaVu Sans'; text-anchor: middle" x="361.167687" y="18.977578" transform="rotate(-0 361.167687 18.977578)">Faithfulness Evaluation: Token Mask</text>
   </g>
   <g id="line2d_24">
    <path d="M 55.472688 57.632131 
L 61.526054 66.929838 
L 67.57942 76.012109 
L 73.632787 85.870552 
L 79.686153 95.974567 
L 85.739519 108.755699 
L 91.792886 119.254117 
L 97.846252 128.883691 
L 103.899618 133.077072 
L 109.952985 142.899144 
L 116.006351 152.322627 
L 122.059717 158.033826 
L 128.113084 166.461032 
L 134.16645 175.393227 
L 140.219816 181.813279 
L 146.273183 189.964097 
L 152.326549 196.107275 
L 158.379915 201.506614 
L 164.433282 206.545596 
L 170.486648 214.169728 
L 176.540014 222.192356 
L 182.593381 226.793563 
L 188.646747 230.559843 
L 194.700113 236.460163 
L 200.75348 241.785637 
L 206.806846 246.218281 
L 212.860212 247.988942 
L 218.913579 251.047657 
L 224.966945 254.108843 
L 231.020311 258.090295 
L 237.073678 264.734165 
L 243.127044 271.400988 
L 249.18041 274.963181 
L 255.233777 278.236237 
L 261.287143 281.895667 
L 267.340509 284.63435 
L 273.393876 287.241727 
L 279.447242 290.771382 
L 285.500608 292.779314 
L 291.553975 295.974347 
L 297.607341 297.215128 
L 303.660707 300.904236 
L 309.714074 302.730606 
L 315.76744 305.710992 
L 321.820806 306.490059 
L 327.874173 308.428445 
L 333.927539 310.444722 
L 339.980905 311.818983 
L 346.034272 312.853497 
L 352.087638 313.824244 
L 358.141004 314.878611 
L 364.194371 316.495613 
L 370.247737 318.015928 
L 376.301103 319.438367 
L 382.35447 321.132034 
L 388.407836 322.947288 
L 394.461202 323.633514 
L 400.514569 324.954219 
L 406.567935 326.560525 
L 412.621301 328.136986 
L 418.674668 328.674405 
L 424.728034 329.469048 
L 430.7814 330.045769 
L 436.834767 328.588859 
L 442.888133 329.487882 
L 448.941499 331.179609 
L 454.994866 331.383701 
L 461.048232 330.974862 
L 467.101598 331.358353 
L 473.154965 331.908065 
L 479.208331 331.861715 
L 485.261697 331.625136 
L 491.315064 331.268226 
L 497.36843 319.373456 
L 503.421796 318.967767 
L 509.475163 323.875022 
L 515.528529 323.337415 
L 521.581895 322.86633 
L 527.635262 323.602334 
L 533.688628 323.236361 
L 539.741994 322.971642 
L 545.795361 322.618678 
L 551.848727 322.508049 
L 557.902093 322.888697 
L 563.95546 322.409322 
L 570.008826 322.150548 
L 576.062192 327.148556 
L 582.115559 320.93565 
L 588.168925 320.939569 
L 594.222291 319.823219 
L 600.275658 325.937279 
L 606.329024 325.664683 
L 612.38239 325.199833 
L 618.435757 324.511289 
L 624.489123 324.41618 
L 630.542489 324.280205 
L 636.595856 324.251842 
L 642.649222 324.081821 
L 648.702588 324.037789 
L 654.755955 323.922496 
L 660.809321 323.923329 
L 666.862687 323.87507 
" clip-path="url(#pc354f50a16)" style="fill: none; stroke-dasharray: 9.065,3.92; stroke-dashoffset: 0; stroke: #a8a09a; stroke-width: 2.45"/>
   </g>
   <g id="PolyCollection_3">
    <defs>
     <path id="m4007b3613c" d="M 55.472688 -326.969404 
L 55.472688 -313.835366 
L 61.526054 -264.587868 
L 67.57942 -233.076818 
L 73.632787 -199.059783 
L 79.686153 -172.728175 
L 85.739519 -137.580174 
L 91.792886 -120.951785 
L 97.846252 -104.3143 
L 103.899618 -97.453576 
L 109.952985 -89.931895 
L 116.006351 -85.04899 
L 122.059717 -77.006091 
L 128.113084 -73.491418 
L 134.16645 -72.056133 
L 140.219816 -68.907825 
L 146.273183 -66.067148 
L 152.326549 -65.709246 
L 158.379915 -64.579623 
L 164.433282 -63.600594 
L 170.486648 -63.078884 
L 176.540014 -62.186874 
L 182.593381 -62.034215 
L 188.646747 -61.925785 
L 194.700113 -61.192172 
L 200.75348 -61.35215 
L 206.806846 -59.782749 
L 212.860212 -58.731423 
L 218.913579 -59.295826 
L 224.966945 -57.731418 
L 231.020311 -57.417448 
L 237.073678 -57.100854 
L 243.127044 -56.673521 
L 249.18041 -56.482796 
L 255.233777 -56.47593 
L 261.287143 -56.320117 
L 267.340509 -56.127495 
L 273.393876 -56.427603 
L 279.447242 -56.429332 
L 285.500608 -55.781755 
L 291.553975 -55.435606 
L 297.607341 -54.585423 
L 303.660707 -54.304014 
L 309.714074 -54.297842 
L 315.76744 -54.045702 
L 321.820806 -53.653906 
L 327.874173 -53.148989 
L 333.927539 -52.892546 
L 339.980905 -52.616236 
L 346.034272 -52.202562 
L 352.087638 -50.633633 
L 358.141004 -50.570068 
L 364.194371 -49.786771 
L 370.247737 -49.424422 
L 376.301103 -48.521683 
L 382.35447 -47.347283 
L 388.407836 -46.722934 
L 394.461202 -46.527284 
L 400.514569 -46.296928 
L 406.567935 -46.04321 
L 412.621301 -45.690272 
L 418.674668 -45.201114 
L 424.728034 -44.806636 
L 430.7814 -44.276462 
L 436.834767 -44.207308 
L 442.888133 -43.978063 
L 448.941499 -43.914641 
L 454.994866 -43.971599 
L 461.048232 -44.354948 
L 467.101598 -44.458407 
L 473.154965 -44.59665 
L 479.208331 -45.167747 
L 485.261697 -45.217436 
L 491.315064 -45.906222 
L 497.36843 -45.748512 
L 503.421796 -46.276144 
L 509.475163 -46.196828 
L 515.528529 -46.697441 
L 521.581895 -47.090892 
L 527.635262 -47.188504 
L 533.688628 -47.317734 
L 539.741994 -47.787248 
L 545.795361 -47.974674 
L 551.848727 -48.271544 
L 557.902093 -48.615091 
L 563.95546 -49.112435 
L 570.008826 -49.087663 
L 576.062192 -49.720367 
L 582.115559 -50.354382 
L 588.168925 -50.370094 
L 594.222291 -51.666925 
L 600.275658 -51.658746 
L 606.329024 -51.800009 
L 612.38239 -52.166016 
L 618.435757 -52.809592 
L 624.489123 -52.896829 
L 630.542489 -53.030391 
L 636.595856 -53.018946 
L 642.649222 -53.184295 
L 648.702588 -53.234184 
L 654.755955 -53.352708 
L 660.809321 -53.352708 
L 666.862687 -53.402946 
L 666.862687 -54.915945 
L 666.862687 -54.915945 
L 660.809321 -54.869658 
L 654.755955 -54.869658 
L 648.702588 -54.758983 
L 642.649222 -54.712856 
L 636.595856 -54.549259 
L 630.542489 -54.561028 
L 624.489123 -54.437001 
L 618.435757 -54.34908 
L 612.38239 -53.618295 
L 606.329024 -53.111604 
L 600.275658 -53.030536 
L 594.222291 -53.168217 
L 588.168925 -51.502805 
L 582.115559 -51.520212 
L 576.062192 -50.796073 
L 570.008826 -50.049563 
L 563.95546 -50.178171 
L 557.902093 -49.588368 
L 551.848727 -49.256724 
L 545.795361 -48.952781 
L 539.741994 -48.797811 
L 533.688628 -48.258526 
L 527.635262 -48.165034 
L 521.581895 -48.429054 
L 515.528529 -47.676034 
L 509.475163 -47.100547 
L 503.421796 -47.36497 
L 497.36843 -46.636932 
L 491.315064 -47.163207 
L 485.261697 -46.374865 
L 479.208331 -46.214324 
L 473.154965 -45.474874 
L 467.101598 -45.334701 
L 461.048232 -45.177818 
L 454.994866 -44.540397 
L 448.941499 -44.611089 
L 442.888133 -44.743247 
L 436.834767 -45.093901 
L 430.7814 -45.112394 
L 424.728034 -46.207222 
L 418.674668 -46.863698 
L 412.621301 -47.690642 
L 406.567935 -48.15487 
L 400.514569 -48.550565 
L 394.461202 -48.681738 
L 388.407836 -48.867027 
L 382.35447 -49.789534 
L 376.301103 -52.97549 
L 370.247737 -54.186711 
L 364.194371 -55.610326 
L 358.141004 -56.704493 
L 352.087638 -55.856266 
L 346.034272 -58.160335 
L 339.980905 -57.33856 
L 333.927539 -56.796791 
L 327.874173 -56.917088 
L 321.820806 -57.534763 
L 315.76744 -57.915884 
L 309.714074 -58.302718 
L 303.660707 -58.287476 
L 297.607341 -58.483365 
L 291.553975 -59.435222 
L 285.500608 -59.769929 
L 279.447242 -60.660901 
L 273.393876 -60.506409 
L 267.340509 -60.165809 
L 261.287143 -60.444443 
L 255.233777 -60.684002 
L 249.18041 -60.614071 
L 243.127044 -60.826249 
L 237.073678 -61.474368 
L 231.020311 -61.798032 
L 224.966945 -62.132741 
L 218.913579 -64.419499 
L 212.860212 -63.656884 
L 206.806846 -64.91576 
L 200.75348 -66.893056 
L 194.700113 -66.635333 
L 188.646747 -67.330468 
L 182.593381 -67.464128 
L 176.540014 -67.709776 
L 170.486648 -69.151299 
L 164.433282 -69.967467 
L 158.379915 -71.066184 
L 152.326549 -72.414316 
L 146.273183 -72.940267 
L 140.219816 -76.316941 
L 134.16645 -79.849621 
L 128.113084 -81.550131 
L 122.059717 -85.745933 
L 116.006351 -95.871194 
L 109.952985 -101.08094 
L 103.899618 -110.088861 
L 97.846252 -116.923336 
L 91.792886 -133.872376 
L 85.739519 -151.606429 
L 79.686153 -188.144223 
L 73.632787 -213.861586 
L 67.57942 -248.694594 
L 61.526054 -277.785496 
L 55.472688 -326.969404 
z
"/>
    </defs>
    <g clip-path="url(#pc354f50a16)">
     <use xlink:href="#m4007b3613c" x="0" y="378.034516" style="fill: #6b8cae; fill-opacity: 0.11"/>
    </g>
   </g>
   <g id="legend_1">
    <g id="patch_5">
     <path d="M 523.06325 92.409891 
L 660.282687 92.409891 
Q 662.162687 92.409891 662.162687 90.529891 
L 662.162687 42.557578 
Q 662.162687 40.677578 660.282687 40.677578 
L 523.06325 40.677578 
Q 521.18325 40.677578 521.18325 42.557578 
L 521.18325 90.529891 
Q 521.18325 92.409891 523.06325 92.409891 
z
" style="fill: #ffffff; opacity: 0.96; stroke: #dee2e6; stroke-linejoin: miter"/>
    </g>
    <g id="line2d_25">
     <path d="M 528.70325 52.050109 
L 543.74325 52.050109 
L 558.78325 52.050109 
" style="fill: none; stroke-dasharray: 3.675,4.9; stroke-dashoffset: 0; stroke: #9e5c5c; stroke-width: 2.45"/>
    </g>
    <g id="text_15">
     <text style="font: 9.4px 'DejaVu Sans'; text-anchor: start" x="566.30325" y="55.340109" transform="rotate(-0 566.30325 55.340109)">Least relevant first</text>
    </g>
    <g id="line2d_26">
     <path d="M 528.70325 65.847547 
L 543.74325 65.847547 
L 558.78325 65.847547 
" style="fill: none; stroke-dasharray: 9.065,3.92; stroke-dashoffset: 0; stroke: #a8a09a; stroke-width: 2.45"/>
    </g>
    <g id="text_16">
     <text style="font: 9.4px 'DejaVu Sans'; text-anchor: start" x="566.30325" y="69.137547" transform="rotate(-0 566.30325 69.137547)">Random order</text>
    </g>
    <g id="line2d_27">
     <path d="M 528.70325 79.644984 
L 543.74325 79.644984 
L 558.78325 79.644984 
" style="fill: none; stroke: #6b8cae; stroke-width: 2.45; stroke-linecap: square"/>
    </g>
    <g id="text_17">
     <text style="font: 9.4px 'DejaVu Sans'; text-anchor: start" x="566.30325" y="82.934984" transform="rotate(-0 566.30325 82.934984)">Most relevant first</text>
    </g>
   </g>
   <g id="line2d_28">
    <path d="M 55.472688 57.632131 
L 61.526054 106.847834 
L 67.57942 137.14881 
L 73.632787 171.573831 
L 79.686153 197.598317 
L 85.739519 233.441214 
L 91.792886 250.622435 
L 97.846252 267.415698 
L 103.899618 274.263297 
L 109.952985 282.528098 
L 116.006351 287.574424 
L 122.059717 296.658503 
L 128.113084 300.513741 
L 134.16645 302.081639 
L 140.219816 305.422133 
L 146.273183 308.530808 
L 152.326549 308.972735 
L 158.379915 310.211612 
L 164.433282 311.250485 
L 170.486648 311.919425 
L 176.540014 313.086191 
L 182.593381 313.285344 
L 188.646747 313.406389 
L 194.700113 314.120763 
L 200.75348 313.911913 
L 206.806846 315.685261 
L 212.860212 316.840362 
L 218.913579 316.176853 
L 224.966945 318.102436 
L 231.020311 318.426775 
L 237.073678 318.746904 
L 243.127044 319.28463 
L 249.18041 319.486082 
L 255.233777 319.454549 
L 261.287143 319.652236 
L 267.340509 319.887863 
L 273.393876 319.567509 
L 279.447242 319.489399 
L 285.500608 320.258674 
L 291.553975 320.599101 
L 297.607341 321.500121 
L 303.660707 321.738771 
L 309.714074 321.734236 
L 315.76744 322.053723 
L 321.820806 322.440181 
L 327.874173 323.001477 
L 333.927539 323.189847 
L 339.980905 323.057118 
L 346.034272 322.853067 
L 352.087638 324.789566 
L 358.141004 324.397235 
L 364.194371 325.335967 
L 370.247737 326.228949 
L 376.301103 327.285929 
L 382.35447 329.466107 
L 388.407836 330.239535 
L 394.461202 330.430005 
L 400.514569 330.610769 
L 406.567935 330.935476 
L 412.621301 331.344059 
L 418.674668 332.00211 
L 424.728034 332.527586 
L 430.7814 333.340087 
L 436.834767 333.383911 
L 442.888133 333.673861 
L 448.941499 333.771651 
L 454.994866 333.778518 
L 461.048232 333.268132 
L 467.101598 333.137962 
L 473.154965 332.998753 
L 479.208331 332.34348 
L 485.261697 332.238365 
L 491.315064 331.499801 
L 497.36843 331.841794 
L 503.421796 331.213959 
L 509.475163 331.385828 
L 515.528529 330.847778 
L 521.581895 330.274543 
L 527.635262 330.357747 
L 533.688628 330.246386 
L 539.741994 329.741986 
L 545.795361 329.570788 
L 551.848727 329.270381 
L 557.902093 328.932786 
L 563.95546 328.389213 
L 570.008826 328.465903 
L 576.062192 327.776296 
L 582.115559 327.097219 
L 588.168925 327.098066 
L 594.222291 325.616945 
L 600.275658 325.689875 
L 606.329024 325.578709 
L 612.38239 325.14236 
L 618.435757 324.455179 
L 624.489123 324.3676 
L 630.542489 324.238806 
L 636.595856 324.250413 
L 642.649222 324.08594 
L 648.702588 324.037932 
L 654.755955 323.923333 
L 660.809321 323.923333 
L 666.862687 323.87507 
" clip-path="url(#pc354f50a16)" style="fill: none; stroke: #6b8cae; stroke-width: 2.45; stroke-linecap: square"/>
   </g>
  </g>
 </g>
 <defs>
  <clipPath id="pc354f50a16">
   <rect x="55.472688" y="35.977578" width="611.39" height="298.92"/>
  </clipPath>
 </defs>
</svg>
