<?xml version="1.0" encoding="utf-8" standalone="no"?>
<!DOCTYPE svg PUBLIC "-//W3C//DTD SVG 1.1//EN"
  "http://www.w3.org/Graphics/SVG/1.1/DTD/svg11.dtd">
<svg xmlns:xlink="http://www.w3.org/1999/xlink" width="841.80875pt" height="373.929687pt" viewBox="0 0 841.80875 373.929687" xmlns="http://www.w3.org/2000/svg" version="1.1">
 <metadata>
  <rdf:RDF xmlns:dc="http://purl.org/dc/elements/1.1/" xmlns:cc="http://creativecommons.org/ns#" xmlns:rdf="http://www.w3.org/1999/02/22-rdf-syntax-ns#">
   <cc:Work>
    <dc:type rdf:resource="http://purl.org/dc/dcmitype/StillImage"/>
    <dc:date>2026-05-15T23:53:13.104382</dc:date>
    <dc:format>image/svg+xml</dc:format>
    <dc:creator>
     <cc:Agent>
      <dc:title>Matplotlib v3.9.2, https://matplotlib.org/</dc:title>
     </cc:Agent>
    </dc:creator>
   </cc:Work>
  </rdf:RDF>
 </metadata>
 <defs>
  <style type="text/css">*{stroke-linejoin: round; stroke-linecap: butt}</style>
 </defs>
 <g id="figure_1">
  <g id="patch_1">
   <path d="M 0 373.929687 
L 841.80875 373.929687 
L 841.80875 0 
L 0 0 
z
" style="fill: #ffffff"/>
  </g>
  <g id="axes_1">
   <g id="patch_2">
    <path d="M 52.70875 334.437812 
L 834.60875 334.437812 
L 834.60875 31.837812 
L 52.70875 31.837812 
z
" style="fill: #ffffff"/>
   </g>
   <g id="matplotlib.axis_1">
    <g id="xtick_1">
     <g id="line2d_1">
      <defs>
       <path id="m23addec2bd" d="M 0 0 
L 0 3.5 
" style="stroke: #2c2420; stroke-width: 0.8"/>
      </defs>
      <g>
       <use xlink:href="#m23addec2bd" x="111.218274" y="334.437812" style="fill: #2c2420; stroke: #2c2420; stroke-width: 0.8"/>
      </g>
     </g>
     <g id="text_1">
      <text style="fill: #2c2420; font: 10.5px 'DejaVu Sans'; text-anchor: middle" x="111.218274" y="349.416172" transform="rotate(-0 111.218274 349.416172)">0</text>
     </g>
    </g>
    <g id="xtick_2">
     <g id="line2d_2">
      <g>
       <use xlink:href="#m23addec2bd" x="171.661997" y="334.437812" style="fill: #2c2420; stroke: #2c2420; stroke-width: 0.8"/>
      </g>
     </g>
     <g id="text_2">
      <text style="fill: #2c2420; font: 10.5px 'DejaVu Sans'; text-anchor: middle" x="171.661997" y="349.416172" transform="rotate(-0 171.661997 349.416172)">1</text>
     </g>
    </g>
    <g id="xtick_3">
     <g id="line2d_3">
      <g>
       <use xlink:href="#m23addec2bd" x="232.10572" y="334.437812" style="fill: #2c2420; stroke: #2c2420; stroke-width: 0.8"/>
      </g>
     </g>
     <g id="text_3">
      <text style="fill: #2c2420; font: 10.5px 'DejaVu Sans'; text-anchor: middle" x="232.10572" y="349.416172" transform="rotate(-0 232.10572 349.416172)">2</text>
     </g>
    </g>
    <g id="xtick_4">
     <g id="line2d_4">
      <g>
       <use xlink:href="#m23addec2bd" x="292.549443" y="334.437812" style="fill: #2c2420; stroke: #2c2420; stroke-width: 0.8"/>
      </g>
     </g>
     <g id="text_4">
      <text style="fill: #2c2420; font: 10.5px 'DejaVu Sans'; text-anchor: middle" x="292.549443" y="349.416172" transform="rotate(-0 292.549443 349.416172)">3</text>
     </g>
    </g>
    <g id="xtick_5">
     <g id="line2d_5">
      <g>
       <use xlink:href="#m23addec2bd" x="352.993166" y="334.437812" style="fill: #2c2420; stroke: #2c2420; stroke-width: 0.8"/>
      </g>
     </g>
     <g id="text_5">
      <text style="fill: #2c2420; font: 10.5px 'DejaVu Sans'; text-anchor: middle" x="352.993166" y="349.416172" transform="rotate(-0 352.993166 349.416172)">4</text>
     </g>
    </g>
    <g id="xtick_6">
     <g id="line2d_6">
      <g>
       <use xlink:href="#m23addec2bd" x="413.436889" y="334.437812" style="fill: #2c2420; stroke: #2c2420; stroke-width: 0.8"/>
      </g>
     </g>
     <g id="text_6">
      <text style="fill: #2c2420; font: 10.5px 'DejaVu Sans'; text-anchor: middle" x="413.436889" y="349.416172" transform="rotate(-0 413.436889 349.416172)">5</text>
     </g>
    </g>
    <g id="xtick_7">
     <g id="line2d_7">
      <g>
       <use xlink:href="#m23addec2bd" x="473.880611" y="334.437812" style="fill: #2c2420; stroke: #2c2420; stroke-width: 0.8"/>
      </g>
     </g>
     <g id="text_7">
      <text style="fill: #2c2420; font: 10.5px 'DejaVu Sans'; text-anchor: middle" x="473.880611" y="349.416172" transform="rotate(-0 473.880611 349.416172)">6</text>
     </g>
    </g>
    <g id="xtick_8">
     <g id="line2d_8">
      <g>
       <use xlink:href="#m23addec2bd" x="534.324334" y="334.437812" style="fill: #2c2420; stroke: #2c2420; stroke-width: 0.8"/>
      </g>
     </g>
     <g id="text_8">
      <text style="fill: #2c2420; font: 10.5px 'DejaVu Sans'; text-anchor: middle" x="534.324334" y="349.416172" transform="rotate(-0 534.324334 349.416172)">7</text>
     </g>
    </g>
    <g id="xtick_9">
     <g id="line2d_9">
      <g>
       <use xlink:href="#m23addec2bd" x="594.768057" y="334.437812" style="fill: #2c2420; stroke: #2c2420; stroke-width: 0.8"/>
      </g>
     </g>
     <g id="text_9">
      <text style="fill: #2c2420; font: 10.5px 'DejaVu Sans'; text-anchor: middle" x="594.768057" y="349.416172" transform="rotate(-0 594.768057 349.416172)">8</text>
     </g>
    </g>
    <g id="xtick_10">
     <g id="line2d_10">
      <g>
       <use xlink:href="#m23addec2bd" x="655.21178" y="334.437812" style="fill: #2c2420; stroke: #2c2420; stroke-width: 0.8"/>
      </g>
     </g>
     <g id="text_10">
      <text style="fill: #2c2420; font: 10.5px 'DejaVu Sans'; text-anchor: middle" x="655.21178" y="349.416172" transform="rotate(-0 655.21178 349.416172)">9</text>
     </g>
    </g>
    <g id="xtick_11">
     <g id="line2d_11">
      <g>
       <use xlink:href="#m23addec2bd" x="715.655503" y="334.437812" style="fill: #2c2420; stroke: #2c2420; stroke-width: 0.8"/>
      </g>
     </g>
     <g id="text_11">
      <text style="fill: #2c2420; font: 10.5px 'DejaVu Sans'; text-anchor: middle" x="715.655503" y="349.416172" transform="rotate(-0 715.655503 349.416172)">10</text>
     </g>
    </g>
    <g id="xtick_12">
     <g id="line2d_12">
      <g>
       <use xlink:href="#m23addec2bd" x="776.099226" y="334.437812" style="fill: #2c2420; stroke: #2c2420; stroke-width: 0.8"/>
      </g>
     </g>
     <g id="text_12">
      <text style="fill: #2c2420; font: 10.5px 'DejaVu Sans'; text-anchor: middle" x="776.099226" y="349.416172" transform="rotate(-0 776.099226 349.416172)">11</text>
     </g>
    </g>
    <g id="text_13">
     <text style="fill: #2c2420; font: 11.5px 'DejaVu Sans'; text-anchor: middle" x="443.65875" y="364.338047" transform="rotate(-0 443.65875 364.338047)">Transformer Layer</text>
    </g>
   </g>
   <g id="matplotlib.axis_2">
    <g id="ytick_1">
     <g id="line2d_13">
      <path d="M 52.70875 334.437812 
L 834.60875 334.437812 
" clip-path="url(#p60cb0ea5cc)" style="fill: none; stroke: #e5e7eb; stroke-width: 0.8; stroke-linecap: square"/>
     </g>
     <g id="line2d_14">
      <defs>
       <path id="mdd69e64aae" d="M 0 0 
L -3.5 0 
" style="stroke: #2c2420; stroke-width: 0.8"/>
      </defs>
      <g>
       <use xlink:href="#mdd69e64aae" x="52.70875" y="334.437812" style="fill: #2c2420; stroke: #2c2420; stroke-width: 0.8"/>
      </g>
     </g>
     <g id="text_14">
      <text style="fill: #2c2420; font: 10.5px 'DejaVu Sans'; text-anchor: end" x="45.70875" y="338.426992" transform="rotate(-0 45.70875 338.426992)">0.00</text>
     </g>
    </g>
    <g id="ytick_2">
     <g id="line2d_15">
      <path d="M 52.70875 285.74222 
L 834.60875 285.74222 
" clip-path="url(#p60cb0ea5cc)" style="fill: none; stroke: #e5e7eb; stroke-width: 0.8; stroke-linecap: square"/>
     </g>
     <g id="line2d_16">
      <g>
       <use xlink:href="#mdd69e64aae" x="52.70875" y="285.74222" style="fill: #2c2420; stroke: #2c2420; stroke-width: 0.8"/>
      </g>
     </g>
     <g id="text_15">
      <text style="fill: #2c2420; font: 10.5px 'DejaVu Sans'; text-anchor: end" x="45.70875" y="289.7314" transform="rotate(-0 45.70875 289.7314)">0.02</text>
     </g>
    </g>
    <g id="ytick_3">
     <g id="line2d_17">
      <path d="M 52.70875 237.046628 
L 834.60875 237.046628 
" clip-path="url(#p60cb0ea5cc)" style="fill: none; stroke: #e5e7eb; stroke-width: 0.8; stroke-linecap: square"/>
     </g>
     <g id="line2d_18">
      <g>
       <use xlink:href="#mdd69e64aae" x="52.70875" y="237.046628" style="fill: #2c2420; stroke: #2c2420; stroke-width: 0.8"/>
      </g>
     </g>
     <g id="text_16">
      <text style="fill: #2c2420; font: 10.5px 'DejaVu Sans'; text-anchor: end" x="45.70875" y="241.035808" transform="rotate(-0 45.70875 241.035808)">0.04</text>
     </g>
    </g>
    <g id="ytick_4">
     <g id="line2d_19">
      <path d="M 52.70875 188.351036 
L 834.60875 188.351036 
" clip-path="url(#p60cb0ea5cc)" style="fill: none; stroke: #e5e7eb; stroke-width: 0.8; stroke-linecap: square"/>
     </g>
     <g id="line2d_20">
      <g>
       <use xlink:href="#mdd69e64aae" x="52.70875" y="188.351036" style="fill: #2c2420; stroke: #2c2420; stroke-width: 0.8"/>
      </g>
     </g>
     <g id="text_17">
      <text style="fill: #2c2420; font: 10.5px 'DejaVu Sans'; text-anchor: end" x="45.70875" y="192.340216" transform="rotate(-0 45.70875 192.340216)">0.06</text>
     </g>
    </g>
    <g id="ytick_5">
     <g id="line2d_21">
      <path d="M 52.70875 139.655444 
L 834.60875 139.655444 
" clip-path="url(#p60cb0ea5cc)" style="fill: none; stroke: #e5e7eb; stroke-width: 0.8; stroke-linecap: square"/>
     </g>
     <g id="line2d_22">
      <g>
       <use xlink:href="#mdd69e64aae" x="52.70875" y="139.655444" style="fill: #2c2420; stroke: #2c2420; stroke-width: 0.8"/>
      </g>
     </g>
     <g id="text_18">
      <text style="fill: #2c2420; font: 10.5px 'DejaVu Sans'; text-anchor: end" x="45.70875" y="143.644623" transform="rotate(-0 45.70875 143.644623)">0.08</text>
     </g>
    </g>
    <g id="ytick_6">
     <g id="line2d_23">
      <path d="M 52.70875 90.959851 
L 834.60875 90.959851 
" clip-path="url(#p60cb0ea5cc)" style="fill: none; stroke: #e5e7eb; stroke-width: 0.8; stroke-linecap: square"/>
     </g>
     <g id="line2d_24">
      <g>
       <use xlink:href="#mdd69e64aae" x="52.70875" y="90.959851" style="fill: #2c2420; stroke: #2c2420; stroke-width: 0.8"/>
      </g>
     </g>
     <g id="text_19">
      <text style="fill: #2c2420; font: 10.5px 'DejaVu Sans'; text-anchor: end" x="45.70875" y="94.949031" transform="rotate(-0 45.70875 94.949031)">0.10</text>
     </g>
    </g>
    <g id="ytick_7">
     <g id="line2d_25">
      <path d="M 52.70875 42.264259 
L 834.60875 42.264259 
" clip-path="url(#p60cb0ea5cc)" style="fill: none; stroke: #e5e7eb; stroke-width: 0.8; stroke-linecap: square"/>
     </g>
     <g id="line2d_26">
      <g>
       <use xlink:href="#mdd69e64aae" x="52.70875" y="42.264259" style="fill: #2c2420; stroke: #2c2420; stroke-width: 0.8"/>
      </g>
     </g>
     <g id="text_20">
      <text style="fill: #2c2420; font: 10.5px 'DejaVu Sans'; text-anchor: end" x="45.70875" y="46.253439" transform="rotate(-0 45.70875 46.253439)">0.12</text>
     </g>
    </g>
    <g id="text_21">
     <text style="fill: #2c2420; font: 11.5px 'DejaVu Sans'; text-anchor: middle" x="15.938203" y="183.137812" transform="rotate(-90 15.938203 183.137812)">Norm. relevance</text>
    </g>
   </g>
   <g id="patch_3">
    <path d="M 88.249659 334.437812 
L 111.218274 334.437812 
L 111.218274 168.311453 
L 88.249659 168.311453 
z
" clip-path="url(#p60cb0ea5cc)" style="fill: #6b8cae; opacity: 0.88"/>
   </g>
   <g id="patch_4">
    <path d="M 148.693382 334.437812 
L 171.661997 334.437812 
L 171.661997 144.097324 
L 148.693382 144.097324 
z
" clip-path="url(#p60cb0ea5cc)" style="fill: #6b8cae; opacity: 0.88"/>
   </g>
   <g id="patch_5">
    <path d="M 209.137105 334.437812 
L 232.10572 334.437812 
L 232.10572 130.68758 
L 209.137105 130.68758 
z
" clip-path="url(#p60cb0ea5cc)" style="fill: #6b8cae; opacity: 0.88"/>
   </g>
   <g id="patch_6">
    <path d="M 269.580828 334.437812 
L 292.549443 334.437812 
L 292.549443 141.148845 
L 269.580828 141.148845 
z
" clip-path="url(#p60cb0ea5cc)" style="fill: #6b8cae; opacity: 0.88"/>
   </g>
   <g id="patch_7">
    <path d="M 330.024551 334.437812 
L 352.993166 334.437812 
L 352.993166 118.261426 
L 330.024551 118.261426 
z
" clip-path="url(#p60cb0ea5cc)" style="fill: #6b8cae; opacity: 0.88"/>
   </g>
   <g id="patch_8">
    <path d="M 390.468274 334.437812 
L 413.436889 334.437812 
L 413.436889 119.937016 
L 390.468274 119.937016 
z
" clip-path="url(#p60cb0ea5cc)" style="fill: #6b8cae; opacity: 0.88"/>
   </g>
   <g id="patch_9">
    <path d="M 450.911997 334.437812 
L 473.880611 334.437812 
L 473.880611 102.052712 
L 450.911997 102.052712 
z
" clip-path="url(#p60cb0ea5cc)" style="fill: #6b8cae; opacity: 0.88"/>
   </g>
   <g id="patch_10">
    <path d="M 511.35572 334.437812 
L 534.324334 334.437812 
L 534.324334 106.78493 
L 511.35572 106.78493 
z
" clip-path="url(#p60cb0ea5cc)" style="fill: #6b8cae; opacity: 0.88"/>
   </g>
   <g id="patch_11">
    <path d="M 571.799443 334.437812 
L 594.768057 334.437812 
L 594.768057 107.046511 
L 571.799443 107.046511 
z
" clip-path="url(#p60cb0ea5cc)" style="fill: #6b8cae; opacity: 0.88"/>
   </g>
   <g id="patch_12">
    <path d="M 632.243166 334.437812 
L 655.21178 334.437812 
L 655.21178 98.483253 
L 632.243166 98.483253 
z
" clip-path="url(#p60cb0ea5cc)" style="fill: #6b8cae; opacity: 0.88"/>
   </g>
   <g id="patch_13">
    <path d="M 692.686889 334.437812 
L 715.655503 334.437812 
L 715.655503 81.469115 
L 692.686889 81.469115 
z
" clip-path="url(#p60cb0ea5cc)" style="fill: #6b8cae; opacity: 0.88"/>
   </g>
   <g id="patch_14">
    <path d="M 753.130611 334.437812 
L 776.099226 334.437812 
L 776.099226 260.193973 
L 753.130611 260.193973 
z
" clip-path="url(#p60cb0ea5cc)" style="fill: #6b8cae; opacity: 0.88"/>
   </g>
   <g id="patch_15">
    <path d="M 111.218274 334.437812 
L 134.186889 334.437812 
L 134.186889 153.33828 
L 111.218274 153.33828 
z
" clip-path="url(#p60cb0ea5cc)" style="fill: #9e5c5c; opacity: 0.88"/>
   </g>
   <g id="patch_16">
    <path d="M 171.661997 334.437812 
L 194.630611 334.437812 
L 194.630611 144.328979 
L 171.661997 144.328979 
z
" clip-path="url(#p60cb0ea5cc)" style="fill: #9e5c5c; opacity: 0.88"/>
   </g>
   <g id="patch_17">
    <path d="M 232.10572 334.437812 
L 255.074334 334.437812 
L 255.074334 122.129782 
L 232.10572 122.129782 
z
" clip-path="url(#p60cb0ea5cc)" style="fill: #9e5c5c; opacity: 0.88"/>
   </g>
   <g id="patch_18">
    <path d="M 292.549443 334.437812 
L 315.518057 334.437812 
L 315.518057 128.345175 
L 292.549443 128.345175 
z
" clip-path="url(#p60cb0ea5cc)" style="fill: #9e5c5c; opacity: 0.88"/>
   </g>
   <g id="patch_19">
    <path d="M 352.993166 334.437812 
L 375.96178 334.437812 
L 375.96178 102.208855 
L 352.993166 102.208855 
z
" clip-path="url(#p60cb0ea5cc)" style="fill: #9e5c5c; opacity: 0.88"/>
   </g>
   <g id="patch_20">
    <path d="M 413.436889 334.437812 
L 436.405503 334.437812 
L 436.405503 97.437226 
L 413.436889 97.437226 
z
" clip-path="url(#p60cb0ea5cc)" style="fill: #9e5c5c; opacity: 0.88"/>
   </g>
   <g id="patch_21">
    <path d="M 473.880611 334.437812 
L 496.849226 334.437812 
L 496.849226 71.307378 
L 473.880611 71.307378 
z
" clip-path="url(#p60cb0ea5cc)" style="fill: #9e5c5c; opacity: 0.88"/>
   </g>
   <g id="patch_22">
    <path d="M 534.324334 334.437812 
L 557.292949 334.437812 
L 557.292949 102.555451 
L 534.324334 102.555451 
z
" clip-path="url(#p60cb0ea5cc)" style="fill: #9e5c5c; opacity: 0.88"/>
   </g>
   <g id="patch_23">
    <path d="M 594.768057 334.437812 
L 617.736672 334.437812 
L 617.736672 109.835485 
L 594.768057 109.835485 
z
" clip-path="url(#p60cb0ea5cc)" style="fill: #9e5c5c; opacity: 0.88"/>
   </g>
   <g id="patch_24">
    <path d="M 655.21178 334.437812 
L 678.180395 334.437812 
L 678.180395 130.214891 
L 655.21178 130.214891 
z
" clip-path="url(#p60cb0ea5cc)" style="fill: #9e5c5c; opacity: 0.88"/>
   </g>
   <g id="patch_25">
    <path d="M 715.655503 334.437812 
L 738.624118 334.437812 
L 738.624118 129.215291 
L 715.655503 129.215291 
z
" clip-path="url(#p60cb0ea5cc)" style="fill: #9e5c5c; opacity: 0.88"/>
   </g>
   <g id="patch_26">
    <path d="M 776.099226 334.437812 
L 799.067841 334.437812 
L 799.067841 287.557345 
L 776.099226 287.557345 
z
" clip-path="url(#p60cb0ea5cc)" style="fill: #9e5c5c; opacity: 0.88"/>
   </g>
   <g id="patch_27">
    <path d="M 52.70875 334.437812 
L 834.60875 334.437812 
" style="fill: none; stroke: #a8a09a; stroke-width: 0.9; stroke-linejoin: miter; stroke-linecap: square"/>
   </g>
   <g id="text_22">
    <text style="fill: #2c2420; font: 600 14px 'DejaVu Sans'; text-anchor: middle" x="443.65875" y="17.837812" transform="rotate(-0 443.65875 17.837812)">Normalized Per-Layer MLP Relevance</text>
   </g>
   <g id="legend_1">
    <g id="patch_28">
     <path d="M 60.05875 71.353906 
L 202.256641 71.353906 
Q 204.356641 71.353906 204.356641 69.253906 
L 204.356641 39.187812 
Q 204.356641 37.087812 202.256641 37.087812 
L 60.05875 37.087812 
Q 57.95875 37.087812 57.95875 39.187812 
L 57.95875 69.253906 
Q 57.95875 71.353906 60.05875 71.353906 
z
" style="fill: #ffffff; opacity: 0.9; stroke: #e5e7eb; stroke-linejoin: miter"/>
    </g>
    <g id="patch_29">
     <path d="M 62.15875 49.266172 
L 83.15875 49.266172 
L 83.15875 41.916172 
L 62.15875 41.916172 
z
" style="fill: #6b8cae; opacity: 0.88"/>
    </g>
    <g id="text_23">
     <text style="font: 10.5px 'DejaVu Sans'; text-anchor: start" x="91.55875" y="49.266172" transform="rotate(-0 91.55875 49.266172)">Model A (SciQ)</text>
    </g>
    <g id="patch_30">
     <path d="M 62.15875 64.678203 
L 83.15875 64.678203 
L 83.15875 57.328203 
L 62.15875 57.328203 
z
" style="fill: #9e5c5c; opacity: 0.88"/>
    </g>
    <g id="text_24">
     <text style="font: 10.5px 'DejaVu Sans'; text-anchor: start" x="91.55875" y="64.678203" transform="rotate(-0 91.55875 64.678203)">Model B (SQuAD_v2)</text>
    </g>
   </g>
  </g>
 </g>
 <defs>
  <clipPath id="p60cb0ea5cc">
   <rect x="52.70875" y="31.837812" width="781.9" height="302.6"/>
  </clipPath>
 </defs>
</svg>
